<?xml version="1.0" encoding="UTF-8"?>
<!DOCTYPE svg PUBLIC "-//W3C//DTD SVG 1.1//EN" "http://www.w3.org/Graphics/SVG/1.1/DTD/svg11.dtd">
<!-- Creator: CorelDRAW 2019 (64-Bit) -->
<svg xmlns="http://www.w3.org/2000/svg" xml:space="preserve" width="200px" height="200px" version="1.1" style="shape-rendering:geometricPrecision; text-rendering:geometricPrecision; image-rendering:optimizeQuality; fill-rule:evenodd; clip-rule:evenodd"
viewBox="0 0 500 500"
 xmlns:xlink="http://www.w3.org/1999/xlink"
 xmlns:xodm="http://www.corel.com/coreldraw/odm/2003">
 <defs>
  <style type="text/css">
   <![CDATA[
    .fil0 {fill:black}
   ]]>
  </style>
 </defs>
 <g id="Layer_x0020_1">
  <metadata id="CorelCorpID_0Corel-Layer"/>
  <g id="_1.svg">
   <g>
    <path class="fil0" d="M-721.05 88.66c-13.34,2.09 -23.75,12.09 -50.84,47.5 -22.5,29.59 -24.16,30.42 -61.25,34.17 -25.83,2.5 -33.33,7.5 -25.83,16.67 4.17,5 3.75,5.83 -2.5,4.58 -7.5,-0.83 -22.08,8.75 -22.08,15 0,1.67 -5.42,8.75 -12.5,15.42 -8.34,8.75 -11.67,15 -10,20.42 1.66,5.41 1.25,5.83 -1.25,2.08 -2.92,-4.17 -6.67,-1.25 -15.42,10.42 -5.83,8.75 -17.92,24.58 -26.67,35 -54.58,67.91 -105.83,135 -111.66,146.25 -11.25,21.66 -9.59,56.66 3.75,79.58 25.41,43.33 87.5,55.83 123.75,25.42 6.66,-5.84 56.25,-66.67 110,-135.42 106.25,-134.58 102.5,-127.92 94.58,-169.58 -3.33,-17.92 -3.33,-18.75 25,-55.84 23.34,-30.83 28.75,-40.83 28.75,-52.91 0,-26.25 -19.58,-42.5 -45.83,-38.75l0 -0.01zm-27.92 91.67c6.67,6.25 6.67,7.09 -1.67,15.84 -8.75,9.16 -9.16,11.66 -4.58,41.66l4.17 32.09 -73.34 93.75c-40.41,51.25 -83.75,106.66 -95.83,122.5 -25,32.5 -42.5,45 -62.5,45 -35,0 -59.17,-23.75 -59.17,-58.34 0,-22.91 -1.25,-20.83 85.42,-131.25 39.17,-49.58 79.58,-101.66 90.42,-115.83 20.83,-27.5 27.5,-30.83 62.5,-31.67 15.83,-0.41 21.25,-2.5 29.16,-12.5 9.59,-12.08 12.5,-12.08 25.42,-1.25l0 0z"/>
    <path class="fil0" d="M-826.47 256.58c-9.17,11.67 -10.83,12.5 -18.75,7.5 -7.08,-4.58 -10,-4.58 -14.17,-0.41 -3.75,3.75 -3.33,6.66 2.5,12.91 7.09,7.92 7.09,8.75 -4.16,25 -12.5,17.5 -17.92,20 -25.42,12.5 -2.5,-2.5 -6.67,-3.33 -9.17,-2.08 -6.66,4.17 -5.41,14.16 2.09,18.33 6.25,3.33 5.41,5.84 -6.67,21.25 -14.17,17.5 -18.33,20 -22.92,12.92 -1.25,-2.5 -5.41,-4.17 -8.75,-4.17 -7.08,0 -7.91,12.92 -0.83,20 3.33,3.33 1.67,8.34 -7.08,20.42 -6.67,8.75 -12.09,16.25 -12.92,17.08 -0.42,0.84 -4.58,-0.83 -9.58,-4.17 -6.67,-4.16 -9.59,-4.16 -13.75,0 -3.75,3.75 -3.34,6.67 2.5,12.92 7.08,7.92 7.08,8.75 -3.75,22.92 -17.92,23.75 -4.59,33.33 14.58,10.41 9.58,-12.08 11.67,-12.91 20.42,-7.91 5.83,2.91 11.25,3.33 13.33,1.25 4.58,-4.59 0.83,-17.92 -5,-17.92 -7.08,0 -3.33,-10.42 9.17,-25 10.83,-12.92 13.33,-13.75 20.83,-9.17 4.58,2.92 10,4.17 12.08,2.92 6.26,-4.17 5,-13.75 -2.91,-17.92 -6.25,-3.75 -5.83,-5 2.08,-16.25 13.34,-19.16 21.25,-24.16 26.67,-18.75 12.92,12.92 22.08,-2.08 10,-15.41 -5,-5.84 -4.17,-8.75 7.92,-22.5 12.5,-14.17 15,-15.42 22.91,-11.25 13.75,7.08 20.42,-1.25 10.42,-12.5 -7.5,-8.34 -7.5,-8.75 1.25,-20.84 17.92,-24.16 5.83,-35.83 -12.92,-12.08l0 0z"/>
   </g>
  </g>
  <g id="_2.svg">
   <g>
    <path class="fil0" d="M-760.12 688.07c-4.16,2.92 -14.58,23.33 -14.58,28.75 0,1.25 3.33,-0.42 7.5,-3.33 6.67,-5.42 6.67,-5.42 0.83,2.5 -3.33,4.58 -8.75,10.83 -11.25,13.75 -2.91,2.91 -5.41,7.5 -5.41,9.58 0,2.5 2.5,2.92 5.41,1.25 2.92,-1.67 3.75,-1.25 1.67,0.84 -2.08,2.08 -5.42,3.75 -7.5,3.75 -2.5,0 -8.75,11.25 -14.58,25 -14.17,32.5 -16.67,44.58 -10,42.91 2.91,-0.83 6.25,1.67 7.08,5 1.25,3.75 0.42,4.59 -1.67,2.09 -7.08,-9.17 -14.58,-3.34 -24.58,20.83 -46.67,110 -48.33,115.83 -36.25,120.42 10.83,4.16 15.83,-3.75 42.92,-68.34 48.75,-115.83 63.33,-154.17 60.41,-161.67 -2.08,-6.25 -1.66,-6.25 3.34,-0.83 3.33,3.33 28.33,52.5 55.41,109.17 42.09,88.75 50.42,103.33 58.34,103.33 5,0 10.41,-2.91 11.66,-6.66 1.25,-3.75 -20,-52.92 -52.08,-119.59 -65.83,-137.5 -65.42,-137.08 -76.67,-128.75l0 0z"/>
    <path class="fil0" d="M-595.95 752.65c-66.66,35.42 -56.67,131.67 16.25,153.34 17.5,5 17.5,5 17.5,25 0,30.41 -5.83,32.91 -79.17,32.91l-60.83 0 -12.08 22.92c-7.09,12.5 -13.34,22.92 -14.59,22.92 -1.25,0 -10,-20 -19.16,-45 -15,-38.75 -18.34,-44.59 -26.67,-44.59 -8.33,0 -11.67,5 -22.08,30l-12.09 30 -52.91 1.25 -52.5 1.25 0 10.42c0,9.17 2.08,10.42 15,11.67 15.41,1.25 15.41,1.25 13.33,17.08 -1.67,10.83 0.83,25.83 7.08,44.58 12.92,37.92 44.59,70.84 81.25,84.59 33.34,12.5 86.25,10.83 114.17,-3.34 49.58,-25.83 76.67,-68.33 77.08,-121.25 0.42,-30.83 0.42,-31.25 -10,-31.25 -10,0 -10.41,1.67 -13.33,28.34 -3.33,35.41 -15.42,60.83 -39.17,81.66 -68.75,60.42 -175.41,22.5 -190.83,-68.33 -1.67,-9.17 -3.75,-20 -5,-24.17 -2.08,-6.25 1.67,-7.08 35.42,-7.08l37.91 0 6.67 -17.08c3.75,-9.17 8.33,-15.42 10.42,-13.34 1.66,1.67 9.58,20 17.08,40.84 12.5,33.33 15,37.5 24.17,37.5 8.75,0 13.75,-5.84 29.16,-32.09l18.75 -32.5 53.34 0c77.5,0 94.58,-9.58 96.25,-56.25 1.25,-22.08 1.66,-22.91 21.66,-36.25 29.59,-20 40,-40 38.34,-75 -1.25,-23.75 -3.34,-30.42 -14.17,-43.75 -26.67,-33.33 -70.42,-43.75 -106.25,-25l0 0zm70 25.84c13.33,9.16 26.25,30.83 26.25,45 0,43.75 -41.25,70.83 -81.25,53.33 -15.42,-7.08 -20.83,-12.08 -27.92,-27.92 -7.08,-16.66 -7.91,-22.08 -3.75,-35 9.59,-32.08 31.67,-47.5 62.5,-43.75 7.5,0.84 18.34,4.59 24.17,8.34l0 0z"/>
   </g>
  </g>
  <g id="_3.svg">
   <g>
    <path class="fil0" d="M189.97 10.19c-64.17,2.08 -72.09,4.16 -87.92,21.66 -22.08,24.17 -22.5,25.84 -22.5,177.5 0,155.84 0.42,158.75 25.83,182.5 15.42,14.59 35,22.5 55.84,22.5 13.33,0 14.16,-0.83 14.16,-14.58 0,-14.58 0,-14.58 -18.33,-14.58 -12.08,0 -21.67,-2.92 -29.17,-8.75 -22.5,-17.92 -23.33,-22.09 -23.33,-156.67l0 -124.17 -11.25 -7.08c-6.67,-4.17 -9.58,-7.5 -6.67,-7.5 2.5,0 6.25,1.67 7.5,4.17 5,8.33 9.59,3.75 14.59,-14.59 10,-35.41 10,-35.41 137.91,-35.41l112.09 0 15.83 14.16 15.42 14.17 1.25 135c0.83,74.17 0,140.42 -1.25,147.92 -1.25,7.5 -7.92,19.16 -15,26.25 -11.25,11.25 -15.42,12.5 -37.5,12.5l-24.59 0 0 15 0 15.41 27.09 -2.08c40,-3.33 66.66,-25 77.08,-62.08 2.5,-7.92 4.17,-70.42 4.17,-139.59 0,-145 -2.08,-157.91 -29.17,-182.5 -9.16,-7.92 -20.83,-15.83 -25.83,-17.08 -14.58,-3.33 -105.83,-4.59 -176.25,-2.09l0 0.01z"/>
    <path class="fil0" d="M135.8 78.1c-1.25,2.92 -1.67,46.25 -1.25,96.67l1.25 91.67 110 1.25c78.33,0.83 111.67,-0.42 115.42,-3.75 5,-4.17 5.83,-22.5 5,-97.09l-1.25 -92.08 -113.75 -1.25c-89.59,-0.83 -114.17,0 -115.42,4.58zm202.08 92.5l0 72.92 -89.58 0 -89.58 0 0 -72.92 0 -72.91 89.58 0 89.58 0 0 72.91z"/>
    <path class="fil0" d="M229.13 133.94c-7.08,15.41 -14.16,37.08 -15,47.5 -2.08,17.08 -0.83,20 11.25,30 22.09,18.75 55.01,10.83 61.67,-15 4.59,-17.92 2.92,-25 -15,-59.17 -20.42,-39.17 -26.67,-39.58 -42.92,-3.33l0 0z"/>
    <path class="fil0" d="M171.63 344.35c-9.16,3.34 -10.41,6.67 -6.25,17.5 1.67,4.17 7.5,6.67 16.67,6.67l13.75 0 1.25 61.25 1.25 61.67 45.83 0 45.84 0 1.25 -61.67 1.25 -61.25 14.16 0c10.42,0 14.59,-2.08 16.67,-8.75 1.67,-5 0.83,-10.83 -1.67,-13.33 -5.41,-5.42 -136.66,-7.09 -150,-2.09l0 0z"/>
   </g>
  </g>
  <g id="_4.svg">
   <g>
    <path class="fil0" d="M1544.04 5.5c-60.83,10.84 -90.83,30.84 -80.41,54.17 11.66,25 58.33,39.17 142.5,42.5 117.92,4.58 200,-16.25 200,-50.83 0,-17.92 -20,-31.25 -63.33,-42.09 -37.92,-9.16 -153.76,-11.66 -198.76,-3.75l0 0zm160.84 25c42.91,5.84 72.08,15 72.08,22.09 0,5.83 -42.91,16.66 -87.5,22.08 -74.58,9.17 -208.75,-8.33 -197.91,-25.42 3.33,-5.83 45,-16.66 77.91,-20.41 47.09,-5.42 89.17,-5 135.42,1.66l0 0z"/>
    <path class="fil0" d="M1469.04 96.76c-3.33,4.16 -2.91,13.75 2.09,38.33 3.75,18.33 8.33,45.83 10,62.08 7.5,61.67 12.91,101.67 21.25,150 4.58,27.5 10.41,65.84 12.92,85.42 2.08,19.58 5.83,37.5 7.91,40 6.25,7.5 51.67,18.75 90.84,22.5 43.33,4.17 92.91,-0.42 130,-12.08l27.91 -8.75 2.5 -32.5c1.67,-17.5 9.59,-97.5 17.5,-177.5 7.92,-80 14.17,-151.25 13.34,-158.34 -0.84,-9.58 -3.75,-13.33 -10,-14.16 -5.42,-0.84 -10,1.66 -11.67,5.41 -1.25,3.75 -10,85 -19.58,180.42 -9.59,95.42 -18.34,175 -20,176.67 -1.67,1.66 -17.5,6.25 -35.84,10 -37.5,7.92 -105.41,6.25 -141.66,-3.33 -23.34,-6.25 -21.25,-1.67 -32.5,-74.17 -10.42,-65 -20,-126.67 -21.25,-131.67 -0.42,-2.91 -3.34,-8.33 -6.67,-12.5 -5,-5.83 -5,-6.66 -0.42,-3.75 4.59,2.5 5.42,-0.83 3.75,-18.75 -1.25,-11.66 -4.16,-22.91 -6.66,-24.58 -2.5,-1.67 -3.75,-7.92 -2.5,-14.58 1.25,-7.09 0.41,-10.42 -2.5,-8.75 -2.09,1.25 -4.17,0.83 -4.17,-1.67 0,-2.08 1.67,-4.58 4.17,-5.42 4.58,-1.66 -3.34,-61.25 -9.59,-69.16 -5.41,-6.67 -13.33,-6.25 -19.16,0.83l-0.01 0z"/>
    <path class="fil0" d="M1644.88 203.84c-17.92,5.42 -26.25,18.75 -29.17,46.25 -2.5,26.67 5.42,39.58 33.75,52.92 24.59,12.08 73.75,13.33 85.84,2.5 8.74,-7.92 20.83,-42.09 20.83,-58.34 0,-11.25 -18.33,-28.75 -38.34,-37.08 -19.99,-8.33 -56.25,-11.67 -72.91,-6.25z"/>
    <path class="fil0" d="M1601.96 318.42c-27.5,15.84 -36.66,25.42 -45.42,50 -10,25.83 -7.08,42.5 10,58.33 35.84,32.92 66.67,30.42 101.26,-8.74 18.33,-20.84 27.91,-48.75 21.25,-61.67 -2.5,-4.17 -13.75,-17.08 -25.42,-28.34 -24.17,-23.74 -33.75,-25.41 -61.67,-9.58l0 0zm35 20.84c2.92,7.08 -5.83,28.75 -17.08,41.66 -10.84,12.5 -26.25,21.67 -41.67,23.75 -13.33,2.09 -13.33,2.09 -7.08,-7.5 3.75,-5.41 6.25,-10.41 5.83,-11.25 -1.25,-2.91 8.33,-23.75 12.08,-26.25 2.51,-1.25 4.59,-5 4.59,-7.5 0,-2.91 -1.67,-2.5 -4.59,1.25 -3.75,5 -4.16,5 -2.08,-1.25 1.25,-4.17 2.5,-10 2.5,-12.5 0,-2.91 2.09,-1.66 4.59,2.5 4.16,6.67 5.41,7.09 11.25,1.67 6.25,-5.42 13.75,-8.34 26.25,-10.83 1.66,0 4.16,2.5 5.41,6.25l0 0z"/>
   </g>
  </g>
  <g id="_5.svg">
   <g>
    <path class="fil0" d="M-510.98 237.7c-7.08,7.09 -6.66,115 0.84,145.84 12.91,54.58 57.91,97.5 112.91,107.08l16.67 2.5 2.08 37.5c2.09,36.67 2.5,37.5 12.5,37.5 10.42,0 10.42,-0.83 12.5,-39.58 2.09,-37.5 2.5,-39.17 12.5,-41.67 7.5,-1.67 10.42,-5 10.42,-12.5 0,-10.41 -0.84,-10.41 -35.42,-10.83 -43.75,-0.84 -69.17,-12.09 -95.83,-42.09 -9.59,-10.83 -19.17,-19.58 -20.84,-19.16 -2.08,0.41 -4.58,-1.67 -5.83,-5.42 -1.67,-4.17 -0.83,-5.42 2.5,-3.33 3.33,2.08 3.75,-0.84 1.67,-9.17 -1.67,-6.67 -4.17,-34.58 -5.42,-61.67l-2.5 -50 17.5 14.59c24.58,19.58 38.75,28.75 46.25,28.75 6.67,0 41.67,-33.75 48.75,-47.09 3.75,-7.08 7.08,-4.16 28.75,22.5 13.33,16.67 26.67,30.84 29.17,31.67 2.5,0.83 17.91,-8.75 34.58,-21.67l29.58 -22.91 0 18.75c0,13.33 2.09,19.58 7.5,22.5 13.76,7.08 19.17,-1.25 20.84,-32.5 2.08,-35.84 -0.84,-50.42 -10.83,-50.42 -3.75,0 -22.92,12.5 -42.09,27.5 -19.17,15.42 -35.83,25.83 -37.5,23.33 -10.42,-16.25 -49.17,-55 -55,-55 -10.83,0 -26.25,21.25 -19.58,26.25 3.75,2.5 3.33,2.92 -1.67,1.67 -6.67,-2.5 -16.67,5.42 -15.42,12.08 1.67,9.59 -0.83,15 -6.66,12.92 -3.34,-1.67 -7.09,-0.83 -8.34,1.67 -1.66,2.08 -13.33,-5.42 -26.25,-16.25 -22.91,-19.59 -48.33,-38.34 -51.66,-38.34 -0.84,0 -3.75,2.09 -6.67,5l0 0z"/>
    <path class="fil0" d="M-241.39 347.29c-10,10.41 -19.59,18.75 -21.25,18.75 -2.09,0 -13.34,-7.5 -25.01,-16.67 -32.5,-25.83 -34.16,-23.75 -35.83,37.5 -0.83,29.17 0.83,58.75 3.33,67.5 6.67,23.34 40.42,55.83 65,62.92l20 5.83 -0.83 22.5c-1.25,26.67 2.92,34.17 16.25,32.08 9.17,-1.24 10,-3.33 11.25,-26.66l1.25 -25.42 17.5 -5.41c29.58,-8.75 49.58,-25.84 66.25,-56.25 7.92,-14.17 9.58,-25.01 10.83,-69.59 1.67,-48.75 1.25,-52.92 -6.66,-57.08 -6.67,-3.34 -12.5,-0.84 -34.17,15l-26.25 19.58 -7.92 -10.41c-17.08,-21.26 -28.33,-32.92 -32.08,-32.92 -2.08,0 -11.67,8.33 -21.67,18.75l0.01 0zm39.16 37.5c8.75,10.41 18.34,18.75 21.25,18.75 2.92,0 12.92,-5.84 21.67,-12.92l16.25 -12.92 1.25 24.59c2.08,34.58 -2.09,49.17 -17.09,66.66 -24.16,27.5 -58.75,36.67 -89.58,24.17 -35,-15 -50.42,-42.08 -50.83,-88.75l0 -30.42 19.16 14.59c10.42,7.91 21.26,13.75 24.59,12.5 2.91,-1.25 11.25,-9.59 18.33,-18.75 7.5,-8.75 14.58,-16.25 16.25,-16.25 1.67,0 10.42,8.33 18.75,18.75l0 0z"/>
   </g>
  </g>
  <g id="_6.svg">
   <g>
    <path class="fil0" d="M691.92 -451.13c-5.42,10.83 -5.42,12.08 3.33,14.16 6.67,1.67 6.67,2.09 0,2.5 -6.25,0.42 -7.5,4.17 -7.5,20.42 0,13.33 -3.75,27.08 -10,40 -5.83,11.25 -9.17,23.33 -7.92,27.08 1.67,5 1.25,5.42 -2.08,0.84 -2.92,-4.17 -6.67,-1.25 -16.25,12.5 -23.33,34.16 -30.42,52.08 -30.42,77.5 0,47.91 26.67,69.16 89.59,70.83 23.33,0.42 45,3.75 57.08,8.33 17.92,6.67 20.42,6.67 26.25,0.84 9.17,-8.75 3.75,-20.42 -11.25,-23.34 -7.5,-1.66 -14.17,-6.66 -18.33,-14.16 -8.34,-16.67 -35.84,-33.75 -55,-34.59 -13.75,-0.41 -15.42,0.84 -15.42,9.59 0,8.33 3.33,11.25 17.92,16.25 9.58,2.91 16.66,7.5 15,9.58 -6.26,10.42 -64.17,-3.33 -74.59,-18.33 -13.75,-19.59 -4.16,-52.92 27.5,-96.67 22.5,-30.83 32.09,-56.25 34.59,-89.58 2.08,-31.25 -1.25,-41.67 -12.5,-41.67 -2.92,0 -7.5,3.75 -10,7.92l0 0z"/>
    <path class="fil0" d="M877.75 -444.88c-2.92,16.25 3.75,65.83 10.83,79.16 2.5,5 13.34,21.67 24.17,37.92 27.5,41.25 33.33,53.33 33.33,72.5 0,11.67 -3.33,20 -10.41,28.75 -12.5,15 -12.92,20 -2.5,25.42 11.25,6.25 27.08,-7.5 36.25,-30.84 10.83,-29.16 3.75,-53.75 -32.5,-107.91 -27.92,-42.09 -29.59,-45.84 -31.25,-72.5 -2.5,-42.09 -4.17,-46.67 -15.42,-46.67 -7.92,0 -10.42,2.92 -12.5,14.17z"/>
    <path class="fil0" d="M864.42 -293.22c-2.5,1.67 -20,32.92 -39.17,69.59 -30.42,57.91 -35,69.58 -35,87.5 0,25.41 9.58,43.75 32.08,62.08 14.59,11.67 19.17,12.92 44.59,12.92 25.41,0 30,-1.25 44.58,-12.92 22.5,-18.33 31.67,-35.83 31.67,-61.25 0,-17.92 -5,-32.5 -30,-86.25 -35.84,-76.67 -37.5,-79.17 -48.75,-71.67zm10.83 50.84c0,2.5 9.58,24.58 21.25,49.16 17.92,37.5 20.83,47.5 19.17,62.5 -2.09,20.84 -14.59,35.84 -35,42.5 -19.59,6.67 -36.25,1.67 -51.25,-15 -18.34,-21.25 -17.09,-39.58 5.83,-82.08 10,-18.75 21.25,-40.42 25,-47.92 6.67,-12.91 15,-17.91 15,-9.16l0 0z"/>
   </g>
  </g>
 </g>
</svg>
